# xmcd
#
# Track frame offsets: 
#        150
#        14507
#        28602
#        42785
#        55582
#        69137
#        81992
#        95222
#        107642
#        120332
#        131210
#        142492
#        155460
#        167067
#        178887
#        191190
#        203167
#        216697
#
# Disc length: 3039 seconds
#
# Revision: 3
# Processed by: cddbd v1.5.2PL0 Copyright (c) Steve Scherf et al.
# Submitted via: ExactAudioCopy v1.0b1
#
DISCID=110bdd12
DTITLE=Memphis Minnie - Queen of the Blues
DYEAR=1997
DGENRE=Blues
TTITLE0=When The Levee Breaks
TTITLE1=Joliet Bound
TTITLE2=He's In The Ring
TTITLE3=Joe Louis Strut
TTITLE4=New Orleans Stop Time
TTITLE5=Blues Everywhere
TTITLE6=Please Don't Stop Him
TTITLE7=Has Anyone Seen My Man?
TTITLE8=I'd Rather See Him Dead
TTITLE9=Call The Fire Wagon
TTITLE10=Bad Outside Friends
TTITLE11=Lonesome Shack
TTITLE12=Pig Meat On The Line
TTITLE13=Looking The World Over
TTITLE14=When You Love Me
TTITLE15=Love Come And Go
TTITLE16=Fashion Plate Daddy
TTITLE17=Killer Diller Blues
EXTD=
EXTT0=
EXTT1=
EXTT2=
EXTT3=
EXTT4=
EXTT5=
EXTT6=
EXTT7=
EXTT8=
EXTT9=
EXTT10=
EXTT11=
EXTT12=
EXTT13=
EXTT14=
EXTT15=
EXTT16=
EXTT17=
PLAYORDER=
